<?xml version="1.0" encoding="UTF-8" standalone="no"?>
<svg
   xmlns:dc="http://purl.org/dc/elements/1.1/"
   xmlns:cc="http://creativecommons.org/ns#"
   xmlns:rdf="http://www.w3.org/1999/02/22-rdf-syntax-ns#"
   xmlns:svg="http://www.w3.org/2000/svg"
   xmlns="http://www.w3.org/2000/svg"
   xmlns:sodipodi="http://sodipodi.sourceforge.net/DTD/sodipodi-0.dtd"
   xmlns:inkscape="http://www.inkscape.org/namespaces/inkscape"
   version="1.0"
   width="300.000000pt"
   height="349.000000pt"
   viewBox="0 0 300.000000 349.000000"
   preserveAspectRatio="xMidYMid meet"
   id="svg10"
   sodipodi:docname="district.svg"
   inkscape:version="1.0.2-2 (e86c870879, 2021-01-15)">
  <defs
     id="defs14" />
  <sodipodi:namedview
     pagecolor="#ffffff"
     bordercolor="#666666"
     borderopacity="1"
     objecttolerance="10"
     gridtolerance="10"
     guidetolerance="10"
     inkscape:pageopacity="0"
     inkscape:pageshadow="2"
     inkscape:window-width="2560"
     inkscape:window-height="1377"
     id="namedview12"
     showgrid="false"
     inkscape:zoom="2.1661891"
     inkscape:cx="342.44479"
     inkscape:cy="234.56245"
     inkscape:window-x="-8"
     inkscape:window-y="-8"
     inkscape:window-maximized="1"
     inkscape:current-layer="svg10" />
  <metadata
     id="metadata2">
Created by potrace 1.10, written by Peter Selinger 2001-2011
<rdf:RDF>
  <cc:Work
     rdf:about="">
    <dc:format>image/svg+xml</dc:format>
    <dc:type
       rdf:resource="http://purl.org/dc/dcmitype/StillImage" />
  </cc:Work>
</rdf:RDF>
</metadata>
  <g
     transform="translate(0.000000,349.000000) scale(0.050000,-0.050000)"
     fill="#000000"
     stroke="none"
     id="g8">
    <path
       d="M894 6678 c-151 -58 -186 -402 -72 -714 46 -129 78 -179 212 -338 119 -142 136 -298 39 -366 -90 -64 -240 -244 -287 -345 -27 -57 -61 -118 -76 -135 -14 -16 -29 -52 -33 -80 -6 -45 -16 -50 -102 -51 -116 0 -472 -342 -474 -455 -1 -30 -14 -86 -29 -123 -25 -59 -25 -72 0 -92 15 -13 28 -42 28 -63 0 -22 28 -66 61 -97 52 -48 58 -64 39 -98 -32 -60 6 -114 94 -135 92 -21 186 -182 201 -345 6 -56 17 -101 26 -101 19 0 59 -177 59 -260 0 -63 60 -112 112 -92 22 8 28 -13 28 -105 0 -70 11 -130 29 -154 17 -22 30 -58 30 -82 1 -24 26 -91 56 -149 67 -129 74 -330 19 -542 -20 -74 -34 -164 -32 -200 2 -36 -12 -158 -32 -270 -44 -245 -23 -382 75 -491 32 -36 63 -90 69 -121 14 -69 89 -111 264 -148 92 -19 153 -47 215 -98 48 -38 130 -86 184 -104 111 -39 225 -132 266 -216 51 -108 188 -61 299 102 30 44 75 85 101 91 45 10 62 42 87 165 6 31 43 88 80 126 77 77 100 141 83 228 -9 44 -3 64 23 78 20 10 47 41 62 68 15 27 48 59 74 71 26 12 48 39 48 59 0 29 25 43 115 63 98 21 130 41 216 130 106 112 178 157 283 180 59 13 166 110 166 151 0 10 16 22 36 29 20 6 68 42 108 80 94 88 202 106 372 62 90 -23 135 -26 163 -12 21 12 60 21 87 21 69 0 215 54 263 98 49 43 259 154 480 252 124 56 191 103 310 219 83 82 210 193 281 247 218 164 289 247 330 385 l38 124 -46 38 c-26 20 -62 37 -80 37 -19 0 -44 10 -57 23 -12 12 -81 46 -152 75 -71 28 -167 86 -213 127 -46 41 -92 75 -102 75 -10 0 -18 27 -18 60 0 49 -8 60 -46 60 -97 0 -124 44 -125 204 -2 234 -61 324 -216 332 -80 4 -132 -4 -164 -25 -63 -41 -124 -39 -137 4 -17 60 -10 371 11 452 25 96 -8 188 -76 214 -25 10 -72 60 -104 111 -52 83 -422 408 -465 408 -8 0 -74 45 -145 99 -76 58 -182 117 -256 142 -70 23 -194 79 -277 123 -274 149 -371 192 -521 235 -82 23 -206 61 -275 85 -112 37 -136 38 -205 16 -75 -25 -81 -24 -128 27 -27 29 -61 53 -75 53 -14 0 -56 25 -92 56 -36 31 -145 96 -242 143 -134 66 -184 101 -205 146 -59 128 -517 288 -663 233z m370 -98 c218 -86 276 -125 276 -185 0 -25 26 -49 80 -71 45 -20 76 -44 71 -58 -5 -14 -15 -93 -23 -177 -14 -150 -15 -152 -65 -143 -69 13 -145 -17 -131 -53 7 -19 -18 -39 -76 -62 -47 -19 -104 -50 -126 -69 -22 -20 -74 -56 -114 -80 l-75 -45 -65 75 c-200 227 -289 642 -183 852 60 120 158 124 431 16z m732 -463 c36 -31 78 -57 94 -57 16 0 44 -22 62 -50 36 -55 104 -65 168 -25 32 20 63 17 175 -19 74 -24 199 -62 277 -85 78 -22 272 -106 430 -187 158 -80 326 -161 372 -178 l84 -32 -24 -67 c-13 -37 -51 -109 -84 -161 -33 -52 -108 -169 -166 -261 -105 -163 -221 -272 -264 -245 -31 19 -149 -112 -173 -193 -17 -59 -27 -67 -83 -64 -69 3 -80 -14 -37 -57 70 -71 56 -227 -30 -325 -68 -77 -330 -936 -337 -1105 0 -3 -42 13 -94 36 -51 22 -105 35 -119 30 -29 -12 -87 65 -128 168 -15 39 -64 106 -109 150 -45 44 -97 105 -116 135 -19 30 -51 55 -71 55 -85 0 -163 165 -108 228 21 23 113 126 205 228 l168 187 -5 163 c-4 123 2 174 25 204 41 54 40 60 -18 86 l-51 23 133 265 133 266 -11 142 c-6 86 -2 152 10 164 13 13 7 31 -20 54 -22 19 -68 60 -103 92 -68 61 -118 73 -156 35 -39 -39 -114 -3 -140 66 -19 51 -19 68 0 80 34 21 9 39 -100 76 l-95 31 6 120 c11 199 10 198 130 137 57 -29 134 -78 170 -110z m-155 -254 c-10 -18 -8 -48 4 -72 12 -22 27 -54 35 -70 18 -40 121 -65 154 -38 14 12 26 14 26 5 0 -9 9 -7 21 5 14 14 42 0 91 -46 39 -37 77 -67 84 -67 8 0 13 -83 13 -185 l-1 -185 -124 -246 c-139 -276 -139 -275 -84 -304 36 -19 38 -27 13 -76 -18 -36 -24 -101 -18 -200 l10 -145 -98 -105 c-54 -57 -142 -157 -196 -221 -115 -136 -164 -122 -140 39 12 78 8 87 -59 141 -40 31 -72 69 -72 84 0 14 -40 73 -90 129 -49 57 -90 113 -90 125 0 12 -26 48 -57 80 -32 33 -72 87 -90 122 -35 69 -166 187 -208 187 -14 0 -25 9 -25 20 0 11 -22 20 -49 20 -64 0 -77 25 -44 88 32 61 208 253 259 282 61 35 82 242 33 321 l-40 65 103 67 c56 37 149 91 205 119 57 29 103 65 103 80 0 37 153 54 264 30 67 -15 81 -25 67 -49z m1986 -487 c53 -42 104 -76 113 -76 9 0 52 -29 96 -65 44 -36 135 -109 201 -163 132 -107 135 -172 7 -199 -30 -6 -77 -32 -104 -58 -39 -37 -67 -46 -120 -40 -45 5 -160 -21 -320 -71 l-250 -80 -26 -156 c-25 -148 -32 -163 -132 -268 -109 -114 -163 -267 -116 -326 55 -69 260 -648 250 -707 -11 -71 22 -133 140 -257 182 -191 40 -222 -166 -35 -211 189 -335 273 -445 301 -145 36 -174 30 -315 -64 -71 -48 -132 -82 -135 -75 -3 7 48 223 113 479 115 455 119 468 212 586 86 110 93 125 70 168 -13 25 -20 58 -15 73 5 15 2 42 -8 61 -13 25 -7 37 25 47 23 7 55 46 72 86 47 113 105 183 150 183 80 0 172 81 276 245 59 91 136 212 173 268 37 57 67 113 67 124 0 46 47 121 68 108 12 -7 66 -47 119 -89z m590 -496 c12 -34 51 -78 91 -102 84 -49 100 -91 75 -192 -26 -102 -13 -460 18 -497 32 -39 76 -37 164 11 220 118 324 4 169 -186 -47 -58 -99 -123 -115 -145 -63 -87 -383 -331 -407 -311 -17 14 -129 -37 -373 -169 -192 -104 -362 -189 -379 -188 -93 1 -205 163 -324 467 -65 165 -126 310 -136 322 -36 44 25 197 117 295 100 106 142 203 143 328 l0 84 234 75 c131 42 274 75 325 74 50 0 96 5 101 12 28 34 143 102 171 102 18 0 37 18 43 40 16 59 59 49 83 -20z m-3497 -60 c0 -11 10 -20 23 -20 33 0 183 -139 214 -199 15 -28 38 -60 51 -71 13 -11 60 -74 103 -140 43 -66 98 -136 123 -156 24 -19 39 -48 34 -63 -6 -15 20 -50 61 -81 62 -48 71 -65 71 -142 0 -50 17 -121 40 -163 22 -41 40 -85 40 -97 0 -41 82 -128 121 -128 21 0 53 -25 72 -55 19 -30 71 -92 117 -137 46 -46 95 -112 110 -147 14 -36 47 -96 73 -133 l46 -69 -84 -169 -84 -169 -230 -93 c-127 -51 -241 -97 -254 -102 -13 -5 -38 32 -58 84 -19 50 -60 131 -91 180 l-56 88 64 6 c62 6 64 10 70 106 l6 100 -221 0 -221 0 0 65 c0 72 -5 74 -102 43 -99 -31 -165 -64 -189 -94 -21 -27 -140 -40 -163 -17 -22 22 -86 219 -86 264 0 104 -119 287 -201 309 -89 24 -112 50 -79 90 26 32 6 80 -58 138 -23 21 -42 60 -42 86 0 26 -13 52 -28 58 -25 10 -25 20 0 79 15 37 28 90 28 117 0 34 34 82 108 152 60 57 130 133 155 171 53 77 134 119 195 100 54 -17 122 21 122 68 0 82 66 161 135 161 36 0 65 -9 65 -20z m4163 -855 c1 -19 3 -90 5 -158 2 -134 36 -194 123 -216 29 -7 49 -26 49 -47 0 -47 208 -220 320 -266 50 -20 123 -55 164 -78 41 -22 87 -40 103 -40 170 0 29 -289 -239 -490 -87 -65 -234 -191 -328 -280 -157 -149 -187 -168 -389 -248 -121 -48 -252 -109 -292 -135 -54 -36 -87 -44 -136 -35 -83 17 -93 37 -32 65 76 35 58 56 -57 68 -164 17 -334 128 -334 219 0 20 -16 43 -35 51 -77 29 -137 145 -75 145 71 0 -21 142 -112 171 -72 23 -158 93 -158 129 0 17 -34 68 -75 111 -109 115 -139 170 -126 236 l11 57 40 -44 c22 -24 65 -62 95 -84 l55 -39 245 129 c135 70 296 157 359 193 70 39 129 59 152 52 58 -18 384 253 510 426 104 141 152 174 157 108z m-2099 -827 c71 -18 243 -146 465 -344 93 -82 104 -87 167 -70 57 16 75 12 112 -22 25 -23 58 -42 75 -42 16 0 55 -27 87 -60 43 -45 49 -60 25 -60 -18 0 -39 -10 -46 -21 -17 -29 84 -179 121 -179 18 0 30 -19 30 -49 0 -71 175 -189 327 -221 52 -11 54 -15 24 -37 -39 -28 -13 -63 57 -76 61 -11 60 -55 -1 -80 -145 -59 -315 -72 -467 -37 -131 30 -259 4 -327 -67 -24 -24 -68 -60 -98 -79 -30 -19 -67 -60 -84 -91 -16 -32 -59 -68 -95 -82 -177 -66 -227 -96 -320 -193 -81 -84 -121 -110 -204 -129 -137 -32 -178 -55 -163 -92 7 -20 -3 -34 -29 -41 -22 -6 -40 -17 -40 -24 0 -7 -29 -48 -64 -90 -53 -65 -63 -92 -58 -163 4 -77 -4 -95 -77 -170 -45 -47 -87 -108 -93 -137 -6 -28 -14 -71 -19 -95 -5 -25 -29 -48 -58 -55 -28 -7 -63 -38 -80 -69 -72 -140 -212 -217 -253 -138 -47 93 -166 194 -267 228 -55 18 -146 67 -201 108 -68 51 -138 83 -219 99 -177 36 -206 56 -269 182 l-57 115 360 286 c457 362 415 313 415 487 l0 148 225 326 c343 498 316 442 235 476 -77 32 -78 23 43 267 l104 208 81 -37 c114 -52 124 -50 292 61 158 103 165 105 344 59z m-1944 -57 c0 -57 3 -59 95 -58 52 1 152 1 221 -1 l126 -2 -6 -75 c-6 -70 -11 -75 -71 -76 -92 -2 -96 -16 -31 -113 32 -47 79 -133 105 -191 58 -126 54 -126 319 -17 177 73 213 82 240 59 18 -14 48 -38 68 -52 34 -24 18 -54 -215 -389 -239 -345 -251 -368 -251 -462 0 -211 7 -201 -408 -534 l-382 -306 -23 63 c-33 89 -32 183 5 376 18 92 32 206 30 253 -1 48 12 134 29 193 55 190 48 422 -16 553 -30 62 -55 129 -55 151 0 21 -14 58 -31 83 -19 27 -32 90 -33 164 -2 120 -36 167 -96 130 -22 -14 -31 5 -47 103 -11 63 -10 64 88 77 58 8 99 24 99 38 0 22 151 85 215 90 15 1 25 -22 25 -57z"
       id="path6" />
  </g>
</svg>
