<?xml version="1.0" encoding="UTF-8" standalone="no"?>
<svg
   xmlns:dc="http://purl.org/dc/elements/1.1/"
   xmlns:cc="http://creativecommons.org/ns#"
   xmlns:rdf="http://www.w3.org/1999/02/22-rdf-syntax-ns#"
   xmlns:svg="http://www.w3.org/2000/svg"
   xmlns="http://www.w3.org/2000/svg"
   xmlns:sodipodi="http://sodipodi.sourceforge.net/DTD/sodipodi-0.dtd"
   xmlns:inkscape="http://www.inkscape.org/namespaces/inkscape"
   version="1.0"
   width="300.000000pt"
   height="349.000000pt"
   viewBox="0 0 300.000000 349.000000"
   preserveAspectRatio="xMidYMid meet"
   id="svg12"
   sodipodi:docname="district_topo.svg"
   inkscape:version="1.0.2-2 (e86c870879, 2021-01-15)">
  <defs
     id="defs16" />
  <sodipodi:namedview
     pagecolor="#ffffff"
     bordercolor="#666666"
     borderopacity="1"
     objecttolerance="10"
     gridtolerance="10"
     guidetolerance="10"
     inkscape:pageopacity="0"
     inkscape:pageshadow="2"
     inkscape:window-width="2560"
     inkscape:window-height="1377"
     id="namedview14"
     showgrid="false"
     inkscape:zoom="2.1661891"
     inkscape:cx="200"
     inkscape:cy="232.66667"
     inkscape:window-x="-8"
     inkscape:window-y="-8"
     inkscape:window-maximized="1"
     inkscape:current-layer="svg12" />
  <metadata
     id="metadata2">
Created by potrace 1.10, written by Peter Selinger 2001-2011
<rdf:RDF>
  <cc:Work
     rdf:about="">
    <dc:format>image/svg+xml</dc:format>
    <dc:type
       rdf:resource="http://purl.org/dc/dcmitype/StillImage" />
  </cc:Work>
</rdf:RDF>
</metadata>
  <g
     transform="translate(0.000000,349.000000) scale(0.100000,-0.100000)"
     fill="#000000"
     stroke="none"
     id="g10">
    <path
       d="M847 3135 c-4 -8 -9 -49 -13 -91 -7 -74 -7 -76 -32 -71 -32 6 -72 -11 -66 -28 3 -7 -9 -18 -28 -26 -45 -18 -178 -109 -178 -122 0 -6 10 -2 23 9 34 30 132 94 144 94 16 0 64 41 58 50 -8 13 86 18 133 6 41 -10 51 -19 33 -30 -5 -3 -2 -21 7 -41 18 -40 69 -65 87 -43 13 17 38 17 48 0 5 -7 22 -22 39 -32 29 -17 30 -21 34 -104 l4 -87 -65 -129 c-36 -71 -65 -134 -65 -140 0 -5 12 -16 28 -24 15 -8 22 -15 15 -16 -19 0 -27 -40 -24 -117 l3 -73 -98 -111 c-90 -103 -99 -110 -111 -93 -9 13 -12 32 -8 57 6 34 4 41 -29 71 -20 18 -36 39 -36 48 0 8 -12 26 -27 41 -37 34 -48 48 -66 84 -9 16 -23 36 -32 43 -9 8 -25 31 -36 52 -11 21 -39 52 -62 68 -23 16 -47 34 -53 39 -18 14 -94 24 -94 12 0 -6 16 -11 37 -11 27 0 49 -10 90 -42 30 -22 59 -51 65 -62 6 -12 26 -39 45 -62 18 -23 33 -45 33 -50 0 -5 20 -32 45 -61 25 -28 45 -57 45 -65 0 -7 16 -26 35 -41 32 -25 35 -31 29 -65 -4 -28 0 -49 20 -88 14 -29 26 -56 26 -61 0 -15 35 -43 53 -43 9 0 25 -12 34 -27 10 -15 36 -45 58 -68 22 -22 49 -60 61 -85 12 -25 29 -54 39 -64 18 -17 17 -21 -30 -116 -27 -55 -52 -97 -56 -94 -5 3 -58 -16 -120 -41 -61 -26 -115 -43 -118 -38 -4 4 -16 28 -26 53 -11 25 -30 61 -42 80 l-23 35 30 3 c33 4 44 27 38 77 l-3 27 -107 2 -108 1 0 33 c0 17 -3 32 -7 32 -24 0 -133 -46 -133 -56 0 -6 -25 -16 -57 -22 l-58 -11 55 4 c30 3 60 11 65 18 6 8 36 23 68 35 l57 22 0 -33 0 -34 110 1 111 1 -3 -40 c-3 -38 -5 -40 -41 -45 l-37 -5 25 -37 c14 -21 37 -65 51 -98 15 -33 32 -60 38 -60 6 0 60 20 120 44 92 38 111 43 122 31 8 -8 23 -17 34 -20 11 -3 20 -11 20 -16 0 -5 -55 -90 -122 -187 l-123 -177 -7 -84 c-4 -46 -9 -85 -10 -86 -2 -1 -82 -65 -178 -141 -96 -77 -186 -147 -199 -156 -14 -10 -22 -20 -19 -23 3 -3 98 69 212 160 l206 165 0 76 0 75 131 191 c72 104 129 191 127 193 -2 1 -17 10 -34 18 l-32 16 55 110 55 109 45 -19 c25 -10 50 -19 56 -19 6 0 46 23 88 51 l78 51 58 -13 c69 -15 109 -41 223 -143 82 -75 86 -77 126 -71 32 5 44 2 59 -15 10 -11 26 -20 36 -20 10 0 30 -12 45 -27 23 -23 24 -27 10 -35 -25 -14 -19 -37 19 -75 19 -19 35 -40 35 -47 0 -37 117 -108 180 -109 l45 0 -34 -14 c-39 -16 -33 -29 24 -49 30 -10 34 -10 24 2 -6 8 -22 14 -35 14 -31 0 -31 14 1 28 39 18 30 29 -28 35 -72 7 -167 61 -167 94 0 7 -16 29 -35 49 -37 36 -45 64 -20 64 8 0 15 6 15 13 0 18 -53 67 -72 67 -20 0 -78 53 -78 72 0 8 -18 32 -40 54 -50 48 -67 80 -62 117 l3 28 50 -42 49 -41 180 97 c117 62 186 94 198 91 28 -9 195 134 265 228 32 43 57 79 55 82 -3 2 -33 -33 -67 -79 -72 -96 -234 -235 -254 -219 -8 7 -67 -20 -195 -90 l-184 -99 -51 48 c-48 44 -57 61 -111 198 -32 83 -62 155 -66 160 -18 22 11 98 59 154 56 66 63 79 70 149 l6 54 105 34 c58 19 128 36 156 37 36 2 63 10 90 29 22 14 49 29 62 33 12 3 22 12 22 20 0 7 6 16 13 18 9 4 9 6 0 6 -7 1 -17 -8 -23 -19 -6 -11 -17 -20 -24 -20 -7 0 -31 -13 -52 -29 -29 -20 -48 -27 -69 -24 -31 4 -259 -60 -282 -79 -7 -6 -13 -27 -13 -47 0 -55 -22 -105 -67 -154 -22 -24 -45 -53 -51 -63 -16 -33 -24 -95 -13 -108 6 -7 38 -82 72 -167 47 -121 59 -161 54 -187 -7 -36 8 -63 71 -127 40 -41 43 -78 7 -83 -16 -2 -43 16 -95 65 -106 98 -172 140 -244 154 l-60 12 -79 -53 c-54 -36 -76 -47 -71 -34 4 10 33 124 66 252 58 231 58 233 105 287 39 46 44 58 36 74 -6 11 -11 33 -11 48 0 16 -6 35 -12 42 -11 10 -10 11 3 6 17 -7 59 36 59 61 0 23 51 74 75 74 46 0 92 48 170 179 11 18 31 50 44 70 47 71 74 151 51 151 -6 0 -10 -6 -9 -12 5 -24 -20 -89 -44 -121 -13 -18 -32 -48 -42 -67 -10 -18 -24 -40 -31 -48 -8 -7 -14 -19 -14 -26 0 -7 -23 -36 -51 -65 -37 -38 -57 -51 -79 -51 -32 0 -56 -27 -84 -94 -15 -35 -19 -38 -46 -32 -33 6 -37 1 -16 -23 7 -9 16 -39 19 -68 6 -50 4 -54 -37 -105 -40 -50 -45 -64 -96 -268 -29 -118 -57 -229 -62 -247 l-9 -32 -50 19 c-28 11 -54 18 -59 15 -10 -6 -60 63 -60 82 0 7 -18 32 -41 55 -22 24 -52 60 -66 81 -14 20 -33 37 -43 37 -21 0 -45 26 -60 64 -12 32 -4 43 127 186 l68 75 -5 79 c-4 66 -2 83 12 102 22 27 22 34 4 34 -40 0 -35 26 30 154 l64 129 -2 94 c-3 76 -6 94 -19 98 -10 3 -29 18 -44 32 -30 31 -63 39 -71 19 -5 -14 -39 -11 -61 6 -17 14 -26 60 -12 68 19 12 2 27 -38 35 -21 4 -43 11 -50 16 -12 11 -6 122 9 152 5 10 5 17 -1 17 -5 0 -11 -7 -14 -15z"
       id="path8" />
  </g>
</svg>
