<?xml version="1.0" standalone="no"?>
<!DOCTYPE svg PUBLIC "-//W3C//DTD SVG 20010904//EN"
 "http://www.w3.org/TR/2001/REC-SVG-20010904/DTD/svg10.dtd">
<svg version="1.0" xmlns="http://www.w3.org/2000/svg"
 width="300.000000pt" height="349.000000pt" viewBox="0 0 300.000000 349.000000"
 preserveAspectRatio="xMidYMid meet">
<metadata>
Created by potrace 1.10, written by Peter Selinger 2001-2011
</metadata>
<g transform="translate(0.000000,349.000000) scale(0.100000,-0.100000)"
fill="#000000" stroke="none">
<path d="M451 3338 c-64 -34 -84 -108 -66 -239 17 -120 58 -212 119 -269 53
-49 68 -84 61 -144 -6 -44 -11 -56 -32 -65 -41 -19 -109 -101 -152 -185 -22
-42 -41 -85 -43 -94 -3 -13 -14 -17 -52 -17 -46 -1 -52 -3 -85 -45 -20 -24
-62 -70 -93 -101 -42 -41 -58 -64 -58 -83 0 -15 -6 -42 -14 -61 -13 -29 -13
-35 0 -46 8 -6 14 -19 14 -29 0 -9 13 -31 30 -48 24 -26 28 -36 21 -55 -12
-32 0 -49 46 -62 33 -9 42 -18 71 -74 21 -43 32 -78 32 -108 0 -23 4 -43 9
-43 11 0 31 -86 31 -130 0 -32 28 -54 54 -44 13 5 16 -3 16 -54 0 -42 5 -66
19 -83 10 -13 16 -30 13 -37 -2 -8 9 -39 24 -70 26 -50 29 -67 28 -142 0 -47
-6 -101 -12 -120 -7 -19 -14 -64 -16 -100 -2 -36 -12 -109 -21 -164 -17 -93
-17 -102 -1 -152 9 -30 28 -66 42 -81 14 -15 28 -40 31 -56 7 -34 44 -55 131
-74 44 -9 78 -25 115 -52 29 -21 70 -44 92 -51 53 -17 113 -67 130 -107 9 -21
21 -33 33 -33 25 0 89 51 119 95 13 19 28 35 33 35 21 0 50 41 50 70 0 21 13
44 46 81 41 46 45 56 43 93 -4 42 6 59 71 123 14 14 25 30 25 36 0 7 29 20 65
29 56 15 72 25 115 71 28 29 66 59 85 66 78 29 102 42 117 69 9 15 34 41 56
57 92 70 127 77 223 49 36 -10 59 -12 71 -6 10 6 43 15 75 21 38 7 77 24 123
55 37 25 102 59 144 77 122 50 143 64 213 133 37 35 102 92 146 125 106 81
156 137 176 199 20 60 11 88 -32 98 -15 4 -36 13 -47 20 -11 7 -45 22 -75 33
-30 12 -72 35 -92 53 -20 18 -46 41 -57 50 -12 11 -18 24 -14 37 4 17 1 21
-19 21 -13 0 -34 7 -47 16 -21 15 -23 22 -19 79 5 53 2 70 -21 116 l-26 54
-58 3 c-39 2 -64 -2 -79 -12 -33 -24 -67 -20 -73 7 -7 29 1 225 10 255 6 19
-1 31 -44 70 -28 26 -51 52 -51 57 0 21 -185 182 -244 212 -17 9 -50 31 -73
50 -23 19 -71 45 -107 58 -36 13 -126 55 -200 94 -74 38 -167 79 -208 91 -40
11 -104 30 -142 42 -54 17 -72 19 -87 10 -26 -16 -49 -15 -68 3 -28 28 -110
79 -209 130 -74 39 -97 56 -102 75 -4 17 -20 32 -50 47 -149 72 -235 94 -279
71z m181 -43 c104 -44 132 -61 138 -86 4 -18 29 -36 102 -74 53 -27 107 -60
120 -72 14 -13 29 -23 36 -23 6 0 27 -14 47 -31 35 -31 37 -31 75 -19 33 11
46 10 87 -4 26 -10 59 -20 73 -23 67 -13 166 -49 222 -79 107 -58 244 -123
274 -130 16 -3 54 -26 86 -49 31 -24 69 -50 86 -59 16 -8 40 -24 53 -35 137
-115 168 -145 177 -170 6 -18 28 -41 52 -56 42 -26 42 -28 35 -68 -4 -23 -7
-91 -7 -150 0 -142 15 -160 95 -117 50 27 107 26 128 -3 24 -34 37 -86 38
-152 1 -65 19 -95 59 -98 15 -1 22 -8 22 -22 0 -33 101 -108 209 -156 127 -56
127 -57 111 -113 -16 -59 -64 -114 -159 -183 -42 -30 -110 -88 -151 -128 -80
-77 -112 -97 -227 -140 -40 -14 -102 -49 -139 -75 -39 -30 -81 -52 -103 -55
-20 -3 -51 -10 -69 -16 -24 -8 -50 -6 -107 6 -88 20 -127 11 -189 -42 -22 -18
-43 -33 -48 -33 -4 0 -19 -18 -32 -39 -21 -33 -35 -42 -83 -56 -47 -14 -67
-27 -108 -71 -37 -39 -63 -58 -100 -70 -84 -27 -105 -36 -100 -45 3 -4 -18
-33 -47 -63 -49 -52 -52 -58 -49 -101 2 -39 -2 -49 -26 -73 -42 -40 -63 -77
-63 -112 0 -24 -6 -32 -34 -44 -19 -8 -37 -23 -40 -34 -10 -29 -82 -92 -106
-92 -12 0 -20 7 -20 17 0 27 -95 110 -134 117 -19 4 -62 26 -94 51 -44 32 -77
47 -120 55 -71 14 -122 42 -122 68 0 9 -13 33 -28 52 -55 67 -64 134 -36 262
9 40 15 96 15 124 -1 28 3 64 9 80 6 15 16 64 21 107 10 83 -2 148 -40 206 -9
14 -14 33 -13 44 2 10 -4 29 -13 43 -9 14 -16 48 -17 79 -2 58 -14 78 -44 73
-15 -2 -21 10 -33 72 -9 41 -19 80 -23 85 -3 6 -11 37 -17 69 -10 56 -51 142
-75 158 -6 4 -20 8 -31 8 -32 0 -49 16 -40 36 12 27 7 46 -21 75 -13 14 -24
31 -24 39 0 7 -7 21 -15 30 -14 15 -14 20 0 46 8 16 15 42 15 57 0 21 15 43
58 85 31 32 71 75 89 96 28 33 37 38 65 34 41 -6 78 9 78 33 0 55 150 269 188
269 19 0 32 44 32 105 0 50 -3 57 -48 107 -27 29 -58 69 -69 88 -82 136 -90
364 -16 410 27 16 115 5 185 -25z"/>
</g>
</svg>
