<?xml version="1.0" standalone="no"?>
<!DOCTYPE svg PUBLIC "-//W3C//DTD SVG 20010904//EN"
 "http://www.w3.org/TR/2001/REC-SVG-20010904/DTD/svg10.dtd">
<svg version="1.0" xmlns="http://www.w3.org/2000/svg"
 width="900.000000pt" height="1047.000000pt" viewBox="0 0 900.000000 1047.000000"
 preserveAspectRatio="xMidYMid meet">
<metadata>
Created by potrace 1.10, written by Peter Selinger 2001-2011
</metadata>
<g transform="translate(0.000000,1047.000000) scale(0.100000,-0.100000)"
fill="#000000" stroke="none">
<path d="M1430 10025 c-19 -7 -45 -14 -58 -14 -27 -1 -87 -39 -124 -77 -38
-41 -96 -160 -108 -224 -16 -81 -14 -293 3 -380 8 -41 18 -109 21 -150 3 -41
15 -102 26 -135 12 -33 25 -74 31 -92 5 -18 14 -35 19 -38 6 -4 10 -15 10 -26
0 -56 131 -270 229 -374 100 -106 139 -152 157 -187 8 -15 18 -28 23 -28 4 0
16 -17 25 -38 19 -42 18 -99 -6 -280 l-12 -94 -70 -34 c-81 -40 -116 -71 -151
-129 -13 -23 -62 -76 -109 -119 -69 -62 -88 -86 -97 -119 -6 -23 -25 -67 -43
-97 -18 -30 -48 -86 -67 -125 -19 -38 -54 -97 -77 -130 -39 -52 -43 -65 -39
-99 4 -31 1 -43 -18 -62 -13 -13 -32 -25 -42 -25 -32 -2 -58 3 -71 13 -16 14
-122 -6 -177 -32 -58 -28 -73 -43 -160 -160 -82 -110 -194 -228 -307 -320 -61
-50 -68 -59 -73 -100 -18 -139 -46 -250 -72 -281 -6 -8 -15 -27 -18 -42 -6
-23 -1 -34 33 -71 31 -34 42 -55 48 -92 10 -74 19 -89 67 -124 47 -34 97 -100
97 -130 0 -10 -6 -23 -14 -29 -18 -15 -27 -86 -14 -122 10 -30 63 -69 94 -69
11 0 50 -8 88 -17 49 -13 73 -25 86 -43 15 -22 92 -160 110 -200 24 -49 40
-93 40 -106 0 -8 6 -27 14 -42 8 -16 16 -70 18 -135 5 -106 6 -109 36 -136 30
-28 52 -83 52 -132 0 -14 7 -48 15 -75 8 -27 15 -78 15 -114 2 -105 14 -162
41 -179 40 -28 91 -41 111 -30 11 6 29 9 41 7 22 -3 22 -5 19 -153 -4 -169 2
-194 78 -289 38 -49 38 -50 24 -84 -18 -44 -18 -76 1 -92 8 -7 15 -17 15 -23
0 -5 19 -37 42 -70 22 -34 44 -75 49 -92 9 -36 26 -88 45 -133 17 -40 19 -294
3 -392 -5 -36 -14 -90 -18 -120 -5 -30 -19 -80 -31 -110 -25 -61 -42 -229 -33
-336 3 -33 1 -76 -6 -95 -12 -37 -37 -161 -50 -251 -5 -31 -12 -61 -16 -68 -4
-7 -11 -53 -16 -104 -4 -50 -13 -123 -19 -163 -9 -61 -9 -77 5 -102 8 -17 15
-37 15 -45 0 -9 6 -30 14 -48 8 -18 24 -64 36 -103 17 -55 28 -74 53 -90 17
-11 38 -32 46 -47 9 -14 33 -51 54 -81 30 -44 37 -65 37 -102 0 -39 5 -51 32
-76 18 -16 36 -29 40 -29 4 0 40 -15 80 -34 40 -18 98 -39 128 -45 30 -7 84
-19 120 -26 36 -8 85 -17 110 -21 48 -6 74 -23 246 -154 109 -83 119 -88 314
-152 53 -18 84 -39 170 -112 123 -106 129 -114 153 -186 23 -66 43 -86 98 -95
34 -6 51 -2 97 21 54 28 242 201 242 223 0 19 61 101 94 126 27 21 52 29 108
34 19 2 48 92 48 150 0 51 6 72 33 122 63 118 67 122 121 157 43 27 75 60 76
78 0 6 6 17 13 23 33 27 44 155 22 258 -8 34 18 82 43 83 14 0 72 59 72 73 0
5 14 26 30 47 17 21 30 43 30 50 0 6 20 20 44 31 54 23 89 65 82 94 -12 47 45
72 274 124 66 15 128 52 204 123 42 39 87 90 100 113 26 44 67 80 132 115 21
12 57 32 79 45 22 13 50 24 61 25 23 0 121 30 169 51 70 31 145 111 145 155 0
17 76 94 93 94 5 0 26 13 47 30 21 16 43 30 48 30 6 0 30 24 54 54 57 71 90
87 257 128 55 13 199 -3 296 -32 39 -12 102 -27 141 -32 64 -10 76 -9 115 9
76 36 112 45 204 53 50 4 106 13 125 20 81 30 108 43 131 63 41 37 124 94 196
133 37 21 82 46 98 56 17 10 37 21 45 25 8 3 31 16 50 29 20 12 61 32 90 44
30 12 69 28 85 35 17 7 50 21 75 30 25 10 118 54 208 98 l163 80 187 186 c187
185 372 341 532 449 137 92 390 356 390 406 0 9 6 30 14 48 8 18 22 60 31 93
10 33 22 70 26 83 13 35 11 58 -9 91 -31 51 -93 90 -155 97 -23 3 -49 12 -58
20 -8 8 -18 14 -22 14 -3 0 -22 11 -41 23 -19 13 -67 34 -108 47 -88 28 -244
102 -313 149 -27 19 -75 60 -105 91 -31 32 -79 72 -108 90 -60 37 -88 79 -72
109 27 51 -3 91 -69 91 -50 0 -106 27 -151 72 l-33 32 5 188 c5 167 3 192 -13
229 -11 23 -19 46 -19 53 0 23 -68 144 -105 190 l-39 46 -149 0 -149 0 -66
-44 c-52 -34 -80 -46 -125 -51 -54 -6 -59 -5 -87 23 l-30 30 1 245 c1 156 -3
257 -10 278 -9 29 -8 43 10 89 26 69 42 162 36 218 -7 67 -60 138 -121 159
-55 20 -142 107 -152 151 -11 49 -39 93 -101 158 -35 35 -66 64 -70 64 -8 0
-96 73 -176 147 -27 24 -77 61 -110 83 -34 21 -79 59 -100 84 -21 25 -42 46
-47 46 -8 0 -138 72 -180 100 -8 6 -24 14 -35 19 -11 5 -31 19 -45 33 -14 13
-45 39 -70 58 -25 18 -49 38 -55 44 -20 22 -93 76 -103 76 -5 0 -15 6 -21 14
-6 8 -32 17 -58 21 -44 6 -61 12 -128 40 -16 7 -50 21 -75 30 -40 16 -514 249
-565 278 -11 7 -34 22 -50 33 -17 12 -75 41 -130 64 -55 23 -104 46 -110 50
-5 4 -19 10 -30 13 -11 3 -45 15 -75 27 -60 23 -157 54 -235 75 -27 7 -75 20
-106 29 -31 9 -72 16 -91 16 -20 0 -41 7 -48 15 -7 8 -18 15 -26 15 -7 0 -28
6 -46 14 -104 43 -207 68 -248 61 -19 -4 -53 -17 -75 -30 -86 -49 -136 -42
-181 26 -29 43 -129 108 -168 109 -15 0 -146 105 -167 133 -7 9 -44 32 -69 42
-8 4 -22 11 -30 16 -8 5 -22 12 -30 15 -20 7 -261 123 -280 134 -8 5 -47 25
-87 44 -77 38 -103 69 -103 125 0 42 -47 92 -123 130 -34 18 -82 43 -107 56
-25 14 -59 25 -76 25 -28 0 -90 23 -134 50 -58 35 -181 77 -290 99 -19 4 -45
13 -57 19 -28 15 -69 14 -113 -3z"/>
</g>
</svg>
