<?xml version="1.0" encoding="UTF-8" standalone="no"?>
<svg
   xmlns:dc="http://purl.org/dc/elements/1.1/"
   xmlns:cc="http://creativecommons.org/ns#"
   xmlns:rdf="http://www.w3.org/1999/02/22-rdf-syntax-ns#"
   xmlns:svg="http://www.w3.org/2000/svg"
   xmlns="http://www.w3.org/2000/svg"
   xmlns:sodipodi="http://sodipodi.sourceforge.net/DTD/sodipodi-0.dtd"
   xmlns:inkscape="http://www.inkscape.org/namespaces/inkscape"
   version="1.0"
   width="279.000000pt"
   height="299.000000pt"
   viewBox="0 0 279.000000 299.000000"
   preserveAspectRatio="xMidYMid meet"
   id="svg8"
   sodipodi:docname="vt.svg"
   inkscape:version="1.0.2-2 (e86c870879, 2021-01-15)">
  <defs
     id="defs12" />
  <sodipodi:namedview
     pagecolor="#ffffff"
     bordercolor="#666666"
     borderopacity="1"
     objecttolerance="10"
     gridtolerance="10"
     guidetolerance="10"
     inkscape:pageopacity="0"
     inkscape:pageshadow="2"
     inkscape:window-width="2270"
     inkscape:window-height="1226"
     id="namedview10"
     showgrid="false"
     inkscape:zoom="1.264214"
     inkscape:cx="-149.9812"
     inkscape:cy="199.28828"
     inkscape:window-x="0"
     inkscape:window-y="0"
     inkscape:window-maximized="0"
     inkscape:current-layer="svg8" />
  <metadata
     id="metadata2">
Created by potrace 1.16, written by Peter Selinger 2001-2019
<rdf:RDF>
  <cc:Work
     rdf:about="">
    <dc:format>image/svg+xml</dc:format>
    <dc:type
       rdf:resource="http://purl.org/dc/dcmitype/StillImage" />
  </cc:Work>
</rdf:RDF>
</metadata>
  <g
     transform="translate(0.000000,299.000000) scale(0.100000,-0.100000)"
     fill="#000000"
     stroke="none"
     id="g6">
    <path
       id="path4"
       style="stroke-width:0.133333"
       transform="matrix(7.5000001,0,0,-7.5000001,0,2990)"
       d="m 151.83398,50.53125 c -0.41616,0.923153 -1.04985,2.120768 -1.96679,3.736328 -2,3.6 -5.06745,8.266016 -6.80078,10.666016 -3.6,4.933333 -5.06732,5.19987 -33.33399,6.533203 -8.92693,0.368881 -13.727196,0.479944 -16.310545,0.246094 -0.206776,0.02415 -0.414285,0.04894 -0.621094,0.07031 -0.02653,0.0028 -0.05341,0 -0.08008,0 H 92.4375 92.052734 c 0.0039,0.0082 0.0099,0.01523 0.01367,0.02344 0.03189,0.06891 0.04837,0.144043 0.07031,0.216797 5.94e-4,0.002 0.0014,0.0039 0.002,0.0059 0.103112,0.185273 0.213785,0.368167 0.302734,0.560547 0.158161,0.34209 0.224841,0.723209 0.248047,1.101562 l 22.376957,-0.625 c 28.13333,-0.8 27.8677,-0.799088 35.73437,-15.732422 1.43032,-2.643926 2.66065,-4.776087 3.75195,-6.517578 -0.17765,0.02519 -0.358,0.04463 -0.63085,0.0625 -0.1955,0.01279 -0.39239,-0.0044 -0.5879,-0.0059 -0.0556,-0.01483 -0.17662,-0.04451 -0.25,-0.0625 -0.25083,0.02916 -0.3074,0.03746 -0.70703,0.01367 -0.036,-0.0021 -0.0714,-0.0057 -0.10742,-0.0078 -0.0181,-0.0011 -0.0726,-0.0052 -0.0547,-0.002 0.0391,0.0069 0.11639,0.0025 0.15039,0.002 0.10396,-0.0068 0.5162,-0.0317 0.41407,-0.0625 -0.30992,-0.09353 -0.62773,-0.158518 -0.94532,-0.222656 z M 92.138672,72.029297 c 0.0398,0.132999 0.07882,0.266402 0.126953,0.396484 0.03883,0.104922 -0.05992,-0.216418 -0.08984,-0.324219 -0.01254,-0.02396 -0.01873,-0.03736 -0.03711,-0.07227 z m 0.498047,1.486328 c 0.01009,0.05881 0.02154,0.117233 0.0332,0.175781 2.2e-5,-0.0065 1.4e-5,-0.01303 0,-0.01953 -1.2e-4,-0.05363 -0.04227,-0.209117 -0.0332,-0.15625 z m -3.425781,11.634766 c -0.04798,0.09612 -0.0971,0.191696 -0.142579,0.289062 -0.01461,0.03199 -0.02816,0.06381 -0.04297,0.0957 -0.0024,0.01317 -9.79e-4,0.01713 -0.0039,0.02539 -0.09959,0.276317 -0.20578,0.551041 -0.308593,0.826172 -0.174744,0.23786 -0.248289,0.507964 -0.357422,0.773437 -0.04935,0.120059 -0.101957,0.239749 -0.152344,0.359375 -0.162815,0.369262 -0.325554,0.736633 -0.521484,1.089844 -0.04518,0.08145 -0.20156,0.334408 -0.257813,0.425781 -0.02573,0.04179 -0.05312,0.08473 -0.07813,0.126953 -0.08841,0.149443 -0.170212,0.30123 -0.257812,0.451172 -0.02249,0.03849 -0.0942,0.151568 -0.06836,0.115235 0.03473,-0.04881 0.06405,-0.101491 0.0957,-0.152344 -0.113197,0.367023 -0.329923,0.731892 -0.533203,1.0625 -0.0059,0.0096 -0.02938,0.04137 -0.03906,0.05664 l 8.523437,12.904298 c 5.066664,7.73333 13.066274,17.86706 17.599614,22.40039 12.66666,12.66667 26.1332,21.46732 38.5332,25.33398 6.13333,1.86667 14.8,5.9987 20,9.33204 10.93333,7.06666 12.00078,7.20078 36.80078,2.80078 14.26667,-2.53334 22.79974,-3.20065 41.06641,-3.33399 12.8,0 25.06731,-0.53203 27.33398,-1.33203 1.39701,-0.42333 3.22486,-0.8324 5.36719,-1.22461 -0.064,-0.0283 -0.0691,-0.0172 -0.16016,-0.0605 -0.11293,-0.0537 -0.22377,-0.11368 -0.32617,-0.18554 -0.0454,-0.0319 -0.0852,-0.0712 -0.12891,-0.10547 -0.009,-0.007 -0.0221,-0.008 -0.0312,-0.0156 -0.0188,-0.0147 -0.0328,-0.0351 -0.0508,-0.0508 -0.0632,-0.0522 -0.13001,-0.10012 -0.1914,-0.15429 -0.0808,-0.0713 -0.16483,-0.14207 -0.22657,-0.23047 -0.10937,-0.15676 -0.18738,-0.33153 -0.28125,-0.49805 -0.1332,-0.38632 -0.1424,-0.41198 -0.17382,-0.76758 -8.2e-4,-0.001 3.2e-4,-0.003 -0.002,-0.004 -0.14214,-0.33107 -0.13919,-0.26458 -0.18359,-0.68946 -0.002,-0.0175 10e-4,-0.0351 0,-0.0527 -0.0282,-0.0514 -0.0493,-0.10644 -0.0684,-0.16992 -0.74142,0.5587 -1.85411,0.99462 -3.54297,1.54101 -2.66667,0.8 -10.00091,1.73386 -16.26758,1.86719 -6.26666,0.26667 -12.40013,0.39987 -13.46679,0.5332 -1.06667,0 -5.0655,-0.26601 -8.79883,-0.66601 -4.4,-0.53334 -14.13334,0.53359 -28,2.93359 -11.6,2 -22.66654,3.73294 -24.53321,3.59961 -1.86666,0 -7.86731,-2.80091 -13.33398,-6.26758 -5.46667,-3.46666 -13.33398,-7.20039 -17.33398,-8.40039 -22,-6.26666 -43.7323,-25.06523 -60.265629,-51.865232 -4.471396,-7.215342 -5.526939,-9.024851 -5.189453,-12.716797 z M 67.951172,118.51758 c -0.09371,0.25194 -0.210668,0.50144 -0.41211,0.77344 -0.205553,0.27759 -0.450466,0.52334 -0.675781,0.78515 -0.02465,0.0203 -0.0494,0.0404 -0.07422,0.0605 -0.115511,0.24281 -0.227776,0.48698 -0.341796,0.73047 -0.184583,0.18121 -0.209008,0.20765 -0.291016,0.29101 0.966281,-0.0564 1.901222,-0.0993 2.771484,-0.10742 8.520248,-0.0791 12.738021,2.25703 18.804688,9.08203 3.466666,3.86667 7.200391,9.0668 8.40039,11.4668 1.066708,2.4 4.401168,8.93372 7.201168,14.40039 4.26667,8.4 4.93282,10.93359 4.13282,14.93359 -1.06667,5.86667 -8.266149,16.39987 -18.132816,26.53321 -6.933333,7.06666 -7.866666,7.59909 -18,9.73242 -4.497139,1.02207 -8.871737,1.95828 -11.230468,2.52344 0.03504,0.25057 -0.01895,0.858 -0.0332,1.06054 -0.05537,0.61275 -0.02991,0.50433 -0.27539,1.26563 1.767093,-0.39177 4.193509,-0.86217 6.871094,-1.38281 17.333333,-2.93334 21.734635,-5.73282 32.667968,-20.13282 13.199996,-17.33333 13.466796,-21.46679 3.466796,-41.46679 -11.066624,-22.4 -19.601431,-30.40039 -32.134764,-30.40039 -1.088889,0 -1.975842,-0.0513 -2.714844,-0.14844 z m 240.261718,65.78125 c -0.30146,0.91324 -0.576,1.9579 -0.74609,3.03515 -1.06667,5.46667 -10.93321,19.06693 -22.53321,30.9336 -10.8,11.06666 -25.73281,17.6 -46.13281,20 -6.93333,0.8 -7.4681,1.19961 -22.13476,15.59961 -13.73334,13.73333 -15.33243,15.59948 -19.73243,26.13281 -4.13333,10 -7.20065,18.93268 -11.33398,32.66602 -0.0193,0.0741 -0.0425,0.13324 -0.0625,0.20507 0.0256,-0.005 0.0483,-0.0159 0.0742,-0.0195 0.17002,-0.0239 0.31049,-0.0349 0.43555,-0.0351 0.2117,-4.4e-4 0.40059,0.0449 0.58398,0.0937 0.0931,0.003 0.17641,-0.006 0.2793,-0.002 0.13265,0.005 0.26603,0.018 0.39843,0.0273 0.0874,0.0279 0.17342,0.0586 0.26172,0.084 0.0751,0.0134 0.14292,0.024 0.23633,0.041 0.2783,0.0505 0.27779,0.0509 0.30859,0.0566 1.02929,-4.78477 8.93126,-27.27207 12.41797,-35.11719 2.8,-6.26667 6.8,-11.06615 18,-22.13281 12.26667,-12.13334 15.33295,-14.26693 19.59961,-14.9336 20.66667,-2.66666 36,-8.66718 46,-17.86718 10.13334,-9.46667 23.33399,-26.93243 25.33399,-33.73243 0.42099,-1.3925 0.73874,-2.43161 1.04297,-3.21289 -0.28678,-0.0618 -0.32767,-0.068 -0.80469,-0.26757 -0.121,-0.0506 -0.24903,-0.0959 -0.35156,-0.17774 -0.27722,-0.22127 -0.53839,-0.4625 -0.77735,-0.72461 -0.12589,-0.13809 -0.24139,-0.29437 -0.30859,-0.46875 -0.023,-0.0596 -0.0354,-0.12278 -0.0547,-0.18359 z M 63.791016,225.05664 c -0.0019,0.004 -0.0047,0.004 -0.0039,0.0156 0.0039,0.0568 0.03612,0.10468 0.06445,0.15429 -0.02019,-0.0566 -0.03702,-0.11423 -0.06055,-0.16992 z" />
  </g>
</svg>
